#N canvas 546 28 1324 908 12;
#X obj 306 460 *~;
#X obj 12 29 vsl 15 80 0 1 0 0 empty empty empty 0 -9 0 10 #fcfcfc
#000000 #000000 0 1;
#X obj 617 682 /~;
#X obj 636 531 expr $f1+$f2+$f3+$f4;
#X obj 661 410 > 0;
#X obj 610 437 > 0;
#X floatatom 643 603 5 0 0 0 - - - 0;
#X obj 654 463 t b f;
#X obj 726 408 > 0;
#X obj 725 494 t b f;
#X obj 802 413 > 0;
#X obj 778 494 t b f;
#X obj 377 566 expr~ $v1+$v2+$v3+$v4;
#X obj 349 463 *~;
#X obj 402 436 *~;
#X obj 444 465 *~;
#X obj 38 29 vsl 15 80 0 1 0 0 empty empty empty 0 -9 0 10 #fcfcfc
#000000 #000000 0 1;
#X obj 65 29 vsl 15 80 0 1 0 0 empty empty empty 0 -9 0 10 #fcfcfc
#000000 #000000 0 1;
#X obj 91 29 vsl 15 80 0 1 0 0 empty empty empty 0 -9 0 10 #fcfcfc
#000000 #000000 0 1;
#X obj 552 20 inlet~;
#X obj 618 27 inlet~;
#X obj 673 41 inlet~;
#X obj 741 24 inlet~;
#X obj 707 781 outlet~;
#X obj 829 783 outlet~;
#X obj 13 126 hsl 15 15 0 1 0 0 empty empty empty -2 -8 0 10 #fcfcfc
#000000 #000000 0 1;
#X obj 456 41 loadbang;
#X floatatom 28 246 5 0 0 0 - - - 0;
#X floatatom 730 250 5 0 0 0 - - - 0;
#X msg 456 65 set 0.5;
#X obj 27 222 expr 1-$f1;
#X obj 730 226 expr $f1;
#X obj 39 126 hsl 15 15 0 1 0 0 empty empty empty -2 -8 0 10 #fcfcfc
#000000 #000000 0 1;
#X obj 66 126 hsl 15 15 0 1 0 0 empty empty empty -2 -8 0 10 #fcfcfc
#000000 #000000 0 1;
#X obj 92 125 hsl 15 15 0 1 0 0 empty empty empty -2 -8 0 10 #fcfcfc
#000000 #000000 0 1;
#X obj 377 514 *~;
#X floatatom 210 250 5 0 0 0 - - - 0;
#X floatatom 844 244 5 0 0 0 - - - 0;
#X obj 174 227 expr 1-$f1;
#X obj 844 220 expr $f1;
#X floatatom 372 253 5 0 0 0 - - - 0;
#X floatatom 930 247 5 0 0 0 - - - 0;
#X obj 358 233 expr 1-$f1;
#X obj 930 223 expr $f1;
#X floatatom 526 257 5 0 0 0 - - - 0;
#X floatatom 1022 251 5 0 0 0 - - - 0;
#X obj 525 233 expr 1-$f1;
#X obj 1020 224 expr $f1;
#X obj 420 517 *~;
#X obj 474 516 *~;
#X obj 515 519 *~;
#X obj 892 450 *~;
#X obj 933 597 expr~ $v1+$v2+$v3+$v4;
#X obj 935 453 *~;
#X obj 989 452 *~;
#X obj 1030 455 *~;
#X obj 892 474 *~;
#X obj 935 477 *~;
#X obj 989 476 *~;
#X obj 1030 479 *~;
#X obj 894 733 /~;
#X obj 275 679 /~;
#X obj 43 638 expr~ $v1+$v2+$v3+$v4;
#X obj 306 770 outlet~;
#X obj 610 461 change;
#X obj 657 433 change;
#X obj 726 432 change;
#X obj 802 437 change;
#X obj 328 729 clip~ -1 1;
#X obj 673 729 clip~ -1 1;
#X obj 758 742 clip~ -1 1;
#X connect 0 0 35 0;
#X connect 0 0 62 0;
#X connect 1 0 0 1;
#X connect 1 0 5 0;
#X connect 1 0 51 1;
#X connect 2 0 69 0;
#X connect 3 0 6 0;
#X connect 3 0 2 1;
#X connect 3 0 60 1;
#X connect 3 0 61 1;
#X connect 4 0 65 0;
#X connect 5 0 64 0;
#X connect 7 0 3 0;
#X connect 7 1 3 1;
#X connect 8 0 66 0;
#X connect 9 0 3 0;
#X connect 9 1 3 2;
#X connect 10 0 67 0;
#X connect 11 0 3 0;
#X connect 11 1 3 3;
#X connect 12 0 2 0;
#X connect 13 0 48 0;
#X connect 13 0 62 1;
#X connect 14 0 49 0;
#X connect 14 0 62 2;
#X connect 15 0 50 0;
#X connect 15 0 62 3;
#X connect 16 0 13 1;
#X connect 16 0 4 0;
#X connect 16 0 53 1;
#X connect 17 0 14 1;
#X connect 17 0 8 0;
#X connect 17 0 54 1;
#X connect 18 0 15 1;
#X connect 18 0 10 0;
#X connect 18 0 55 1;
#X connect 19 0 0 0;
#X connect 19 0 51 0;
#X connect 20 0 13 0;
#X connect 20 0 53 0;
#X connect 21 0 14 0;
#X connect 21 0 54 0;
#X connect 22 0 15 0;
#X connect 22 0 55 0;
#X connect 25 0 30 0;
#X connect 25 0 31 0;
#X connect 26 0 29 0;
#X connect 27 0 35 1;
#X connect 28 0 56 1;
#X connect 29 0 25 0;
#X connect 29 0 32 0;
#X connect 29 0 33 0;
#X connect 29 0 34 0;
#X connect 30 0 27 0;
#X connect 31 0 28 0;
#X connect 32 0 38 0;
#X connect 32 0 39 0;
#X connect 33 0 42 0;
#X connect 33 0 43 0;
#X connect 34 0 46 0;
#X connect 34 0 47 0;
#X connect 35 0 12 0;
#X connect 36 0 48 1;
#X connect 37 0 57 1;
#X connect 38 0 36 0;
#X connect 39 0 37 0;
#X connect 40 0 49 1;
#X connect 41 0 58 1;
#X connect 42 0 40 0;
#X connect 43 0 41 0;
#X connect 44 0 50 1;
#X connect 45 0 59 1;
#X connect 46 0 44 0;
#X connect 47 0 45 0;
#X connect 48 0 12 1;
#X connect 49 0 12 2;
#X connect 50 0 12 3;
#X connect 51 0 56 0;
#X connect 52 0 60 0;
#X connect 53 0 57 0;
#X connect 54 0 58 0;
#X connect 55 0 59 0;
#X connect 56 0 52 0;
#X connect 57 0 52 1;
#X connect 58 0 52 2;
#X connect 59 0 52 3;
#X connect 60 0 70 0;
#X connect 61 0 68 0;
#X connect 62 0 61 0;
#X connect 64 0 3 0;
#X connect 65 0 7 0;
#X connect 66 0 9 0;
#X connect 67 0 11 0;
#X connect 68 0 63 0;
#X connect 69 0 23 0;
#X connect 70 0 24 0;
#X coords 0 -1 1 1 120 150 1 0 0;
