#N canvas 323 305 1813 1001 12;
#X floatatom 34 17 5 0 1023 0 code - - 12;
#X obj 56 40 tgl 15 0 empty empty I/O -21 7 0 10 #fcfcfc #000000 #000000
0 1;
#X obj 167 41 bng 15 250 50 0 empty empty reset 17 7 0 10 #fcfcfc #000000
#000000;
#X floatatom 167 17 5 60 300 1 BPM - - 0;
#X obj 2 48 bng 8 250 50 0 empty empty empty 17 7 0 10 #ffffff #00ff04
#00ff04;
#X obj 228 48 bng 8 250 50 0 empty empty empty 17 7 0 10 #fcfcfc #00ff04
#00ff04;
#N canvas 154 451 450 300 seq 0;
#X obj 0 0 cnv 1 10 40 empty \$0-seq-pos empty 20 12 0 14 #14e814 #404040
0;
#N canvas 314 265 450 278 (subpatch) 0;
#X array \$0-yShin-D2B-v1.2 10 float 3;
#A 0 0 0 1 0 1 0 1 0 1 0;
#X coords 0 1.5 10 -0.5 90 40 1 0 0;
#X restore 0 0 graph;
#X obj 0 20 cnv 10 10 20 empty \$0-512 empty 20 12 0 14 #000000 #404040
0;
#X coords 0 -1 1 1 90 40 2 0 0;
#X restore 74 16 pd seq;
#X obj 21 263 i, f 16;
#X obj 151 128 random 1023;
#X obj 190 104 bng 15 250 50 0 empty empty <<\\\ debug 17 7 0 10 #fcfcfc
#000000 #000000;
#X msg 21 190 \$1;
#X floatatom 22 169 5 0 0 0 - - - 0;
#X obj 21 212 t b f, f 16;
#X obj 57 302 expr if($i1==0 \, 0 \, $i1/2) \; if($i1>0 \, $i1%2 \,
0) \;, f 27;
#X obj 67 361 tabwrite \$0-yShin-D2B-v1.2;
#X obj 151 266 expr abs(9-$f1);
#X obj 22 237 uzi 10 0, f 32;
#X obj 507 331 tabread \$0-yShin-D2B-v1.2;
#X obj 493 192 metro;
#X obj 531 152 expr 120/$f1/$f2*1000;
#X obj 676 125 expr if($f1==0 \, 2 \, 4);
#X obj 676 97 tabread \$0-yShin-D2B-v1.2;
#X msg 676 74 0;
#X obj 274 363 sel 0;
#X floatatom 410 303 5 0 0 0 - - - 0;
#X obj 505 378 sel 0;
#X obj 565 373 sel 1;
#X obj 826 543 s \$0-seq-pos;
#X msg 713 465 pos \$1 0;
#X msg 865 468 vis_size 10 40;
#X msg 921 414 color 76;
#X msg 801 464 pos 0 0;
#X msg 787 198 1;
#X obj 787 222 * 20;
#X msg 787 246 pos 0 \$1;
#X obj 786 167 sel 0 1;
#X msg 828 198 0;
#X obj 787 270 s \$0-512;
#X obj 432 10 loadbang;
#X msg 395 35 170;
#X msg 432 34 145;
#X obj 712 201 + 1;
#X obj 704 306 * 10;
#X obj 669 275 + 1;
#X obj 668 255 % 8;
#X obj 743 242 sel 9;
#X obj 669 201 f 0;
#X msg 744 276 0;
#X obj 140 465 outlet;
#X obj 279 468 outlet;
#X obj 305 13 inlet;
#X obj 362 13 inlet;
#X obj 546 25 inlet;
#X obj 626 28 inlet;
#X connect 0 0 11 0;
#X connect 1 0 18 0;
#X connect 2 0 0 0;
#X connect 2 0 3 0;
#X connect 2 0 47 0;
#X connect 3 0 19 0;
#X connect 4 0 48 0;
#X connect 5 0 49 0;
#X connect 7 0 13 0;
#X connect 8 0 11 0;
#X connect 9 0 8 0;
#X connect 10 0 12 0;
#X connect 11 0 10 0;
#X connect 12 0 16 0;
#X connect 12 1 7 1;
#X connect 13 0 7 1;
#X connect 13 1 14 0;
#X connect 15 0 14 1;
#X connect 15 0 23 0;
#X connect 16 0 7 0;
#X connect 16 2 15 0;
#X connect 17 0 25 0;
#X connect 17 0 26 0;
#X connect 18 0 46 0;
#X connect 19 0 18 1;
#X connect 20 0 19 1;
#X connect 21 0 20 0;
#X connect 21 0 35 0;
#X connect 22 0 21 0;
#X connect 23 0 22 0;
#X connect 25 0 4 0;
#X connect 26 0 5 0;
#X connect 28 0 27 0;
#X connect 29 0 27 0;
#X connect 30 0 27 0;
#X connect 31 0 27 0;
#X connect 32 0 33 0;
#X connect 33 0 34 0;
#X connect 34 0 37 0;
#X connect 35 0 32 0;
#X connect 35 1 36 0;
#X connect 36 0 33 0;
#X connect 38 0 39 0;
#X connect 38 0 40 0;
#X connect 38 0 30 0;
#X connect 38 0 31 0;
#X connect 38 0 29 0;
#X connect 39 0 0 0;
#X connect 40 0 3 0;
#X connect 41 0 46 1;
#X connect 42 0 28 0;
#X connect 43 0 42 0;
#X connect 43 0 45 0;
#X connect 43 0 24 0;
#X connect 43 0 17 0;
#X connect 44 0 43 0;
#X connect 45 0 47 0;
#X connect 46 0 41 0;
#X connect 46 0 44 0;
#X connect 47 0 46 1;
#X connect 50 0 0 0;
#X connect 51 0 1 0;
#X connect 52 0 2 0;
#X connect 53 0 3 0;
#X coords 0 -1 1 1 240 60 2 0 0;
