#N canvas 189 86 1169 1028 12;
#X listbox 371 269 20 0 0 2 Binary \$0-trans - 0;
#X floatatom 35 18 5 0 1023 0 code - - 12;
#X obj 257 281 tgl 15 0 empty empty empty 17 7 0 10 #fcfcfc #000000
#000000 0 1;
#X obj 198 251 t b b b;
#X obj 12 386 sel 0 1 2 3 4 5 6 7 8 9;
#X obj 285 483 s \$0-pcb;
#X obj 19 440 r \$0-pcb;
#X obj 19 475 spigot;
#X obj 65 460 tgl 15 0 empty empty empty 17 7 0 10 #fcfcfc #000000
#000000 0 1;
#X obj 106 439 r \$0-pcb;
#X obj 106 474 spigot;
#X obj 152 459 tgl 15 0 empty empty empty 17 7 0 10 #fcfcfc #000000
#000000 0 1;
#X obj 194 440 r \$0-pcb;
#X obj 194 473 spigot;
#X obj 239 459 tgl 15 0 empty empty empty 17 7 0 10 #fcfcfc #000000
#000000 0 1;
#X obj 19 505 r \$0-pcb;
#X obj 19 540 spigot;
#X obj 69 526 tgl 15 0 empty empty empty 17 7 0 10 #fcfcfc #000000
#000000 0 1;
#X obj 106 504 r \$0-pcb;
#X obj 106 539 spigot;
#X obj 150 529 tgl 15 0 empty empty empty 17 7 0 10 #fcfcfc #000000
#000000 0 1;
#X obj 194 505 r \$0-pcb;
#X obj 194 538 spigot;
#X obj 245 525 tgl 15 0 empty empty empty 17 7 0 10 #fcfcfc #000000
#000000 0 1;
#X obj 20 573 r \$0-pcb;
#X obj 23 612 spigot;
#X obj 66 593 tgl 15 0 empty empty empty 17 7 0 10 #fcfcfc #000000
#000000 0 1;
#X obj 107 572 r \$0-pcb;
#X obj 107 607 spigot;
#X obj 148 564 tgl 15 0 empty empty empty 17 7 0 10 #fcfcfc #000000
#000000 0 1;
#X obj 195 573 r \$0-pcb;
#X obj 195 606 spigot;
#X obj 240 592 tgl 15 0 empty empty empty 17 7 0 10 #fcfcfc #000000
#000000 0 1;
#X obj 277 558 r \$0-pcb;
#X obj 277 590 spigot;
#X obj 322 576 tgl 15 0 empty empty empty 17 7 0 10 #fcfcfc #000000
#000000 0 1;
#X msg 288 279 10;
#X obj 311 357 - 1;
#X obj 265 350 i 10;
#X obj 310 392 % 10;
#X obj 21 747 s \$0-trans;
#X obj 283 421 t f f;
#X obj 257 323 metro 1;
#X obj 193 277 del 10;
#X msg 22 721 \$1 \$2 \$3 \$4 \$5 \$6 \$7 \$8 \$9;
#X obj 25 693 pack f f f f f f f f f;
#X obj 848 303 loadbang;
#X obj 335 -1 inlet;
#X obj 574 295 metro;
#X obj 57 41 tgl 15 0 empty empty I/O -21 7 0 10 #fcfcfc #000000 #000000
0 1;
#X obj 168 42 bng 15 250 50 0 empty empty reset 17 7 0 10 #fcfcfc #000000
#000000;
#X floatatom 168 18 5 60 300 1 BPM - - 0;
#X msg 521 87 170;
#X obj 720 40 inlet;
#X obj 651 38 inlet;
#X obj 509 7 inlet;
#X obj 653 333 + 1;
#X obj 4 894 sel 0;
#X obj 3 49 bng 8 250 50 0 empty empty empty 17 7 0 10 #ffffff #00ff04
#00ff04;
#X obj 1 920 outlet;
#X obj 584 908 outlet;
#X obj 229 50 bng 8 250 50 0 empty empty empty 17 7 0 10 #fcfcfc #00ff04
#00ff04;
#N canvas 201 581 450 300 seq 0;
#X obj 50 0 cnv 1 10 40 empty \$0-seq-pos empty 20 12 0 14 #14e814
#404040 0;
#N canvas 1203 785 450 278 (subpatch) 0;
#X array \$0-yShin-D2Bv1.1 9 float 3;
#A 0 1 1 0 1 0 1 0 1 0;
#X coords 0 1.5 9 -0.5 90 40 1 0 0;
#X restore 0 0 graph;
#X obj 0 20 cnv 10 10 20 empty \$0-512 empty 20 12 0 14 #000000 #404040
0;
#X coords 0 -1 1 1 90 40 2 0 0;
#X restore 75 17 pd seq;
#X obj 940 533 s \$0-seq-pos;
#X obj 718 454 * 10;
#X msg 794 448 pos \$1 0;
#X msg 844 403 vis_size 10 40;
#X msg 1035 404 color 76;
#X msg 961 400 pos 0 0;
#X obj 608 337 f 0;
#X floatatom 662 354 10 0 0 0 - - - 0;
#X obj 727 400 % 8;
#X msg 521 551 1;
#X obj 520 575 * 20;
#X msg 520 599 pos 0 \$1;
#X obj 520 520 sel 0 1;
#X msg 562 551 0;
#X obj 520 623 s \$0-512;
#X obj 584 884 sel 1;
#X obj 636 490 tabread \$0-yShin-D2Bv1.1;
#X obj 284 457 tabread \$0-yShin-D2Bv1.1;
#N canvas 1062 116 938 604 D2Bcore 0;
#X obj 98 91 tgl 15 0 empty empty empty 17 7 0 10 #fcfcfc #000000 #000000
0 1;
#X obj 97 227 bng 15 250 50 0 empty empty empty 17 7 0 10 #fcfcfc #000000
#000000;
#X floatatom 278 279 5 0 0 0 - - - 0;
#X obj 276 256 % 2;
#X obj 244 256 / 2;
#X obj 244 203 t f f b;
#X obj 97 194 route 0;
#X floatatom 244 318 5 0 0 0 - - - 0;
#X obj 165 141 int;
#X obj 94 168 expr if($f1<=2 \, if($f1==2 \, 2 \, if($f1<1 \, 0 \,
1)) \, $f1);
#X msg 92 32 \$1;
#X obj 201 16 inlet;
#X obj 414 480 tabwrite \$0-yShin-D2Bv1.1;
#X floatatom 527 319 5 0 0 0 - - - 0;
#X obj 10 124 del 10;
#X obj 244 341 i;
#X floatatom 244 365 5 0 0 0 - - - 0;
#X obj 466 215 tgl 15 0 empty empty empty 17 7 0 10 #fcfcfc #000000
#000000 0 1;
#X obj 609 313 == 0;
#X floatatom 671 252 5 0 0 0 - - - 0;
#X msg 547 216 9;
#X obj 510 262 f 0;
#X obj 467 236 metro 10;
#X obj 569 113 route 1;
#X obj 601 217 - 1;
#X obj 601 241 % 9;
#X floatatom 601 265 5 0 0 0 - - - 0;
#X obj 96 111 metro 10;
#X msg 468 296 0;
#X obj 405 299 spigot;
#X obj 438 281 tgl 15 0 empty empty empty 17 7 0 10 #fcfcfc #000000
#000000 0 1;
#X obj 341 301 spigot;
#X obj 374 283 tgl 15 0 empty empty empty 17 7 0 10 #fcfcfc #000000
#000000 0 1;
#X obj 477 363 == 0;
#X obj 477 387 route 1;
#X obj 435 378 bng 15 250 50 0 empty empty empty 17 7 0 10 #fcfcfc
#000000 #000000;
#X obj 97 57 t b f b b b;
#X obj 553 183 del 1;
#X connect 0 0 27 0;
#X connect 1 0 14 0;
#X connect 1 0 32 0;
#X connect 2 0 31 0;
#X connect 3 0 2 0;
#X connect 4 0 7 0;
#X connect 4 0 8 1;
#X connect 5 0 4 0;
#X connect 5 1 3 0;
#X connect 6 0 1 0;
#X connect 6 1 5 0;
#X connect 7 0 15 0;
#X connect 8 0 9 0;
#X connect 9 0 6 0;
#X connect 10 0 36 0;
#X connect 11 0 10 0;
#X connect 14 0 0 0;
#X connect 15 0 16 0;
#X connect 16 0 33 0;
#X connect 17 0 22 0;
#X connect 18 0 23 0;
#X connect 20 0 21 1;
#X connect 21 0 13 0;
#X connect 21 0 24 0;
#X connect 22 0 21 0;
#X connect 22 0 28 0;
#X connect 23 0 17 0;
#X connect 23 0 37 0;
#X connect 24 0 19 0;
#X connect 24 0 21 1;
#X connect 24 0 25 0;
#X connect 25 0 26 0;
#X connect 26 0 18 0;
#X connect 26 0 12 1;
#X connect 27 0 8 0;
#X connect 28 0 29 0;
#X connect 29 0 12 0;
#X connect 29 0 35 0;
#X connect 30 0 29 1;
#X connect 31 0 12 0;
#X connect 32 0 31 1;
#X connect 33 0 34 0;
#X connect 34 0 30 0;
#X connect 36 0 0 0;
#X connect 36 1 8 1;
#X connect 36 2 30 0;
#X connect 36 3 32 0;
#X connect 36 4 17 0;
#X connect 37 0 20 0;
#X restore 34 183 pd D2Bcore;
#N canvas 38 348 450 300 IO_gate 0;
#X obj 156 25 inlet;
#X obj 173 160 sel;
#X obj 144 130 f;
#X obj 190 195 f;
#X obj 202 234 outlet;
#X obj 157 55 t b f f f b;
#X obj 95 134 bng 15 250 50 0 empty empty empty 17 7 0 10 #fcfcfc #000000
#000000;
#X obj 169 239 bng 15 250 50 0 empty empty empty 17 7 0 10 #fcfcfc
#000000 #000000;
#X obj 100 101 del 10;
#X connect 0 0 5 0;
#X connect 1 0 3 0;
#X connect 2 0 1 0;
#X connect 3 0 4 0;
#X connect 3 0 7 0;
#X connect 5 0 8 0;
#X connect 5 1 2 1;
#X connect 5 2 1 1;
#X connect 5 3 3 1;
#X connect 6 0 2 0;
#X connect 8 0 6 0;
#X restore 31 108 pd IO_gate;
#X obj 194 229 bng 15 250 50 0 empty empty debug\\\ system 17 7 0 10
#fcfcfc #000000 #000000;
#X obj 459 431 tabread \$0-yShin-D2Bv1.1;
#X msg 460 407 0;
#N canvas 38 348 450 300 IO_gate 0;
#X obj 156 25 inlet;
#X obj 173 160 sel;
#X obj 144 130 f;
#X obj 190 195 f;
#X obj 202 234 outlet;
#X obj 157 55 t b f f f b;
#X obj 95 134 bng 15 250 50 0 empty empty empty 17 7 0 10 #fcfcfc #000000
#000000;
#X obj 169 239 bng 15 250 50 0 empty empty empty 17 7 0 10 #fcfcfc
#000000 #000000;
#X obj 100 101 del 100;
#X connect 0 0 5 0;
#X connect 1 0 3 0;
#X connect 2 0 1 0;
#X connect 3 0 4 0;
#X connect 3 0 7 0;
#X connect 5 0 8 0;
#X connect 5 1 2 1;
#X connect 5 2 1 1;
#X connect 5 3 3 1;
#X connect 6 0 2 0;
#X connect 8 0 6 0;
#X restore 69 135 pd IO_gate;
#X msg 505 137 170;
#X obj 611 271 expr 120/$f1*1000;
#X msg 635 306 0;
#X floatatom 658 454 5 0 0 0 - - - 0;
#X obj 651 388 % 8;
#X obj 651 412 + 1;
#X connect 1 0 82 0;
#X connect 2 0 42 0;
#X connect 3 0 43 0;
#X connect 3 1 2 0;
#X connect 3 2 36 0;
#X connect 4 0 32 0;
#X connect 4 0 35 0;
#X connect 4 1 29 0;
#X connect 4 1 32 0;
#X connect 4 2 29 0;
#X connect 4 2 26 0;
#X connect 4 3 26 0;
#X connect 4 3 23 0;
#X connect 4 4 23 0;
#X connect 4 4 20 0;
#X connect 4 5 20 0;
#X connect 4 5 17 0;
#X connect 4 6 14 0;
#X connect 4 6 17 0;
#X connect 4 7 11 0;
#X connect 4 7 14 0;
#X connect 4 8 11 0;
#X connect 4 8 8 0;
#X connect 4 9 8 0;
#X connect 6 0 7 0;
#X connect 8 0 7 1;
#X connect 9 0 10 0;
#X connect 10 0 45 8;
#X connect 11 0 10 1;
#X connect 12 0 13 0;
#X connect 13 0 45 7;
#X connect 14 0 13 1;
#X connect 15 0 16 0;
#X connect 16 0 45 6;
#X connect 17 0 16 1;
#X connect 18 0 19 0;
#X connect 19 0 45 5;
#X connect 20 0 19 1;
#X connect 21 0 22 0;
#X connect 22 0 45 4;
#X connect 23 0 22 1;
#X connect 24 0 25 0;
#X connect 25 0 45 3;
#X connect 26 0 25 1;
#X connect 27 0 28 0;
#X connect 28 0 45 2;
#X connect 29 0 28 1;
#X connect 30 0 31 0;
#X connect 31 0 45 1;
#X connect 32 0 31 1;
#X connect 33 0 34 0;
#X connect 34 0 45 0;
#X connect 35 0 34 1;
#X connect 36 0 38 1;
#X connect 37 0 38 1;
#X connect 37 0 39 0;
#X connect 38 0 37 0;
#X connect 39 0 41 0;
#X connect 41 0 80 0;
#X connect 41 1 4 0;
#X connect 42 0 38 0;
#X connect 43 0 2 0;
#X connect 43 0 35 0;
#X connect 44 0 40 0;
#X connect 45 0 44 0;
#X connect 46 0 87 0;
#X connect 46 0 52 0;
#X connect 46 0 68 0;
#X connect 46 0 67 0;
#X connect 46 0 66 0;
#X connect 47 0 1 0;
#X connect 48 0 69 0;
#X connect 49 0 48 0;
#X connect 50 0 89 0;
#X connect 51 0 88 0;
#X connect 52 0 51 0;
#X connect 53 0 51 0;
#X connect 54 0 50 0;
#X connect 55 0 49 0;
#X connect 56 0 69 1;
#X connect 56 0 70 0;
#X connect 57 0 59 0;
#X connect 57 0 58 0;
#X connect 64 0 65 0;
#X connect 65 0 63 0;
#X connect 66 0 63 0;
#X connect 67 0 63 0;
#X connect 68 0 63 0;
#X connect 69 0 56 0;
#X connect 69 0 91 0;
#X connect 72 0 73 0;
#X connect 73 0 74 0;
#X connect 74 0 77 0;
#X connect 75 0 72 0;
#X connect 75 1 76 0;
#X connect 76 0 73 0;
#X connect 78 0 60 0;
#X connect 78 0 61 0;
#X connect 79 0 57 0;
#X connect 79 0 78 0;
#X connect 80 0 5 0;
#X connect 82 0 81 0;
#X connect 82 0 86 0;
#X connect 83 0 3 0;
#X connect 84 0 75 0;
#X connect 85 0 84 0;
#X connect 86 0 81 0;
#X connect 87 0 1 0;
#X connect 88 0 48 1;
#X connect 89 0 69 1;
#X connect 90 0 79 0;
#X connect 91 0 92 0;
#X connect 92 0 90 0;
#X connect 92 0 64 0;
#X coords 0 -1 1 1 240 60 2 0 0;
