#N canvas 253 23 1088 969 12;
#N canvas 915 507 806 528 pcb 0;
#X obj 0 1 cnv 15 330 330 empty empty empty 20 12 0 14 #202020 #404040
0;
#X obj 14 14 cnv 15 100 100 empty \$0-1 empty 20 12 0 14 #fcfcfc #404040
0;
#X obj 115 14 cnv 15 100 100 empty \$0-2 empty 20 12 0 14 #fcfcfc #404040
0;
#X obj 216 14 cnv 15 100 100 empty \$0-3 empty 20 12 0 14 #fcfcfc #404040
0;
#X obj 14 115 cnv 15 100 100 empty \$0-4 empty 20 12 0 14 #fcfcfc #404040
0;
#X obj 115 115 cnv 15 100 100 empty \$0-5 empty 20 12 0 14 #fcfcfc
#404040 0;
#X obj 216 115 cnv 15 100 100 empty \$0-6 empty 20 12 0 14 #fcfcfc
#404040 0;
#X obj 14 216 cnv 15 100 100 empty \$0-7 empty 20 12 0 14 #000000 #404040
0;
#X obj 115 216 cnv 15 100 100 empty \$0-8 empty 20 12 0 14 #fcfcfc
#404040 0;
#X obj 216 216 cnv 15 100 100 empty \$0-9 empty 20 12 0 14 #000000
#404040 0;
#X coords 0 0 1 1 330 330 1 0 0;
#X restore 1 26 pd pcb;
#X obj 35 551 s \$0-1;
#X msg 35 522 color \$1;
#X msg 35 486 -1;
#X msg 68 487 0;
#X obj 36 460 sel 0 1;
#X msg 115 524 color \$1;
#X msg 115 488 -1;
#X msg 148 489 0;
#X obj 116 462 sel 0 1;
#X obj 115 553 s \$0-2;
#X msg 188 526 color \$1;
#X msg 188 490 -1;
#X msg 221 491 0;
#X obj 189 464 sel 0 1;
#X obj 188 555 s \$0-3;
#X msg 33 678 color \$1;
#X msg 33 642 -1;
#X msg 66 643 0;
#X obj 34 616 sel 0 1;
#X msg 113 680 color \$1;
#X msg 113 644 -1;
#X msg 146 645 0;
#X obj 114 618 sel 0 1;
#X msg 186 682 color \$1;
#X msg 186 646 -1;
#X msg 219 647 0;
#X obj 187 620 sel 0 1;
#X msg 27 832 color \$1;
#X msg 27 796 -1;
#X msg 60 797 0;
#X obj 28 770 sel 0 1;
#X msg 107 834 color \$1;
#X msg 107 798 -1;
#X msg 140 799 0;
#X obj 108 772 sel 0 1;
#X msg 180 836 color \$1;
#X msg 180 800 -1;
#X msg 213 801 0;
#X obj 181 774 sel 0 1;
#X obj 34 707 s \$0-4;
#X obj 113 709 s \$0-5;
#X obj 186 711 s \$0-6;
#X obj 180 865 s \$0-9;
#X obj 107 863 s \$0-8;
#X obj 27 861 s \$0-7;
#X obj 266 491 sel 0 1 2 3 4 5 6 7 8 9;
#X obj 513 643 s \$0-pcb;
#X obj 264 616 r \$0-pcb;
#X obj 264 651 spigot;
#X obj 310 636 tgl 15 0 empty empty empty 17 7 0 10 #fcfcfc #000000
#000000 0 1;
#X obj 351 615 r \$0-pcb;
#X obj 351 650 spigot;
#X obj 397 635 tgl 15 0 empty empty empty 17 7 0 10 #fcfcfc #000000
#000000 0 1;
#X floatatom 5 4 5 0 1023 1 code - - 0;
#X obj 439 616 r \$0-pcb;
#X obj 439 649 spigot;
#X obj 484 635 tgl 15 0 empty empty empty 17 7 0 10 #fcfcfc #000000
#000000 0 1;
#X obj 264 681 r \$0-pcb;
#X obj 264 716 spigot;
#X obj 310 701 tgl 15 0 empty empty empty 17 7 0 10 #fcfcfc #000000
#000000 0 1;
#X obj 351 680 r \$0-pcb;
#X obj 351 715 spigot;
#X obj 397 700 tgl 15 0 empty empty empty 17 7 0 10 #fcfcfc #000000
#000000 0 1;
#X obj 439 681 r \$0-pcb;
#X obj 439 714 spigot;
#X obj 484 700 tgl 15 0 empty empty empty 17 7 0 10 #fcfcfc #000000
#000000 0 1;
#X obj 265 749 r \$0-pcb;
#X obj 265 784 spigot;
#X obj 311 769 tgl 15 0 empty empty empty 17 7 0 10 #fcfcfc #000000
#000000 0 1;
#X obj 352 748 r \$0-pcb;
#X obj 352 783 spigot;
#X obj 398 768 tgl 15 0 empty empty empty 17 7 0 10 #fcfcfc #000000
#000000 0 1;
#X obj 440 749 r \$0-pcb;
#X obj 440 782 spigot;
#X obj 485 768 tgl 15 0 empty empty empty 17 7 0 10 #fcfcfc #000000
#000000 0 1;
#X text 171 437 170;
#X text 202 437 682;
#X text 509 15 try PCB here;
#X obj 635 12 loadbang;
#X obj 412 118 inlet;
#X obj 307 443 outlet;
#X msg 746 263 0;
#X floatatom 338 337 5 0 0 2 out - - 0;
#X floatatom 338 298 5 0 0 2 pos - - 0;
#X floatatom 108 4 5 60 300 1 BPM - - 0;
#X obj 613 276 t b b;
#X obj 496 120 inlet;
#X text 740 77 min 0 | max 1023 >>;
#X obj 603 122 inlet;
#X obj 336 4 bng 15 250 50 0 empty empty re 17 7 0 10 #fcfcfc #000000
#000000;
#X obj 233 5 tgl 15 0 empty empty I/O 17 7 0 10 #fcfcfc #000000 #000000
0 1;
#X obj 547 122 inlet;
#X obj 456 439 outlet;
#X obj 614 243 r \$0-9b;
#X obj 245 869 s \$0-9b;
#N canvas 154 451 450 300 seq 0;
#X obj 0 0 cnv 1 10 40 empty \$0-seq-pos empty 20 12 0 14 #14e814 #404040
0;
#N canvas 314 265 450 278 (subpatch) 0;
#X array \$0-yShin-D2B-v1.2 10 float 3;
#A 0 1 0 1 0 1 1 1 1 1 1;
#X coords 0 1.5 10 -0.5 90 40 1 0 0;
#X restore 0 0 graph;
#X obj 0 20 cnv 10 10 20 empty \$0-512 empty 20 12 0 14 #000000 #404040
0;
#X coords 0 -1 1 1 90 40 2 0 0;
#X restore 737 567 pd seq;
#X obj 742 732 i, f 16;
#X obj 872 597 random 1023;
#X obj 911 573 bng 15 250 50 0 empty empty <<\\\ debug 17 7 0 10 #fcfcfc
#000000 #000000;
#X msg 742 659 \$1;
#X floatatom 743 638 5 0 0 0 - - - 0;
#X obj 742 681 t b f, f 16;
#X obj 778 771 expr if($i1==0 \, 0 \, $i1/2) \; if($i1>0 \, $i1%2 \,
0) \;, f 27;
#X obj 788 830 tabwrite \$0-yShin-D2B-v1.2;
#X obj 872 735 expr abs(9-$f1);
#X obj 743 706 uzi 10 0, f 32;
#X obj 731 763 sel 0;
#X obj 509 586 expr abs(9-$f1);
#X obj 508 559 uzi 10 0, f 10;
#X obj 513 616 tabread \$0-yShin-D2B-v1.2;
#X obj 746 288 tabread \$0-yShin-D2B-v1.2;
#X obj 604 498 tabread \$0-yShin-D2B-v1.2;
#X obj 614 312 t b;
#X obj 597 357 expr 120/$f1/$f2*1000;
#X obj 603 391 metro;
#X obj 600 428 f 9;
#X obj 638 429 - 1;
#X obj 692 473 sel 1;
#X msg 656 389 9;
#X obj 601 456 % 10;
#X obj 2 360 bng 8 250 50 0 empty empty empty 17 7 0 10 #fcfcfc #00ff04
#000000;
#X obj 369 360 bng 8 250 50 0 empty empty empty 17 7 0 10 #fcfcfc #00ff04
#000000;
#X msg 412 32 170;
#X msg 412 63 145;
#X obj 294 399 sel 0;
#X obj 441 401 sel 1;
#X obj 388 449 outlet;
#X obj 744 317 expr if($f1==0 \, 4 \, 8);
#X connect 2 0 1 0;
#X connect 3 0 2 0;
#X connect 4 0 2 0;
#X connect 5 0 3 0;
#X connect 5 1 4 0;
#X connect 6 0 10 0;
#X connect 7 0 6 0;
#X connect 8 0 6 0;
#X connect 9 0 7 0;
#X connect 9 1 8 0;
#X connect 11 0 15 0;
#X connect 12 0 11 0;
#X connect 13 0 11 0;
#X connect 14 0 12 0;
#X connect 14 1 13 0;
#X connect 16 0 40 0;
#X connect 17 0 16 0;
#X connect 18 0 16 0;
#X connect 19 0 17 0;
#X connect 19 1 18 0;
#X connect 20 0 41 0;
#X connect 21 0 20 0;
#X connect 22 0 20 0;
#X connect 23 0 21 0;
#X connect 23 1 22 0;
#X connect 24 0 42 0;
#X connect 25 0 24 0;
#X connect 26 0 24 0;
#X connect 27 0 25 0;
#X connect 27 1 26 0;
#X connect 28 0 45 0;
#X connect 29 0 28 0;
#X connect 30 0 28 0;
#X connect 31 0 29 0;
#X connect 31 1 30 0;
#X connect 32 0 44 0;
#X connect 33 0 32 0;
#X connect 34 0 32 0;
#X connect 35 0 33 0;
#X connect 35 1 34 0;
#X connect 36 0 43 0;
#X connect 36 0 95 0;
#X connect 37 0 36 0;
#X connect 38 0 36 0;
#X connect 39 0 37 0;
#X connect 39 1 38 0;
#X connect 46 0 75 0;
#X connect 46 1 75 0;
#X connect 46 1 72 0;
#X connect 46 2 72 0;
#X connect 46 2 69 0;
#X connect 46 3 69 0;
#X connect 46 3 66 0;
#X connect 46 4 66 0;
#X connect 46 4 63 0;
#X connect 46 5 63 0;
#X connect 46 5 60 0;
#X connect 46 6 57 0;
#X connect 46 6 60 0;
#X connect 46 7 53 0;
#X connect 46 7 57 0;
#X connect 46 8 53 0;
#X connect 46 8 50 0;
#X connect 46 9 50 0;
#X connect 48 0 49 0;
#X connect 49 0 5 0;
#X connect 50 0 49 1;
#X connect 51 0 52 0;
#X connect 52 0 9 0;
#X connect 53 0 52 1;
#X connect 54 0 101 0;
#X connect 55 0 56 0;
#X connect 56 0 14 0;
#X connect 57 0 56 1;
#X connect 58 0 59 0;
#X connect 59 0 19 0;
#X connect 60 0 59 1;
#X connect 61 0 62 0;
#X connect 62 0 23 0;
#X connect 63 0 62 1;
#X connect 64 0 65 0;
#X connect 65 0 27 0;
#X connect 66 0 65 1;
#X connect 67 0 68 0;
#X connect 68 0 31 0;
#X connect 69 0 68 1;
#X connect 70 0 71 0;
#X connect 71 0 35 0;
#X connect 72 0 71 1;
#X connect 73 0 74 0;
#X connect 74 0 39 0;
#X connect 75 0 74 1;
#X connect 79 0 124 0;
#X connect 79 0 123 0;
#X connect 80 0 54 0;
#X connect 82 0 111 0;
#X connect 83 0 125 0;
#X connect 83 0 126 0;
#X connect 84 0 127 0;
#X connect 85 0 114 0;
#X connect 86 0 113 0;
#X connect 86 1 82 0;
#X connect 87 0 85 0;
#X connect 89 0 90 0;
#X connect 90 0 54 0;
#X connect 90 0 119 0;
#X connect 91 0 115 0;
#X connect 91 0 86 0;
#X connect 92 0 91 0;
#X connect 94 0 86 0;
#X connect 97 0 103 0;
#X connect 98 0 101 0;
#X connect 99 0 98 0;
#X connect 100 0 102 0;
#X connect 101 0 100 0;
#X connect 102 0 106 0;
#X connect 102 1 97 1;
#X connect 103 0 97 1;
#X connect 103 1 104 0;
#X connect 105 0 104 1;
#X connect 105 0 107 0;
#X connect 106 0 97 0;
#X connect 106 2 105 0;
#X connect 107 0 109 0;
#X connect 108 0 46 0;
#X connect 108 0 110 0;
#X connect 109 2 108 0;
#X connect 110 0 47 0;
#X connect 111 0 128 0;
#X connect 112 0 83 0;
#X connect 113 0 85 0;
#X connect 114 0 115 1;
#X connect 115 0 116 0;
#X connect 116 0 117 0;
#X connect 116 0 120 0;
#X connect 117 0 116 1;
#X connect 118 0 119 0;
#X connect 119 0 116 1;
#X connect 120 0 118 0;
#X connect 120 0 112 0;
#X connect 120 0 84 0;
#X connect 123 0 54 0;
#X connect 124 0 85 0;
#X connect 125 0 81 0;
#X connect 125 0 121 0;
#X connect 126 0 93 0;
#X connect 126 0 122 0;
#X connect 128 0 114 1;
#X coords 0 -1 1 1 380 370 2 0 0;
