#N canvas 144 311 1221 949 12;
#X floatatom 422 450 5 0 0 0 - - - 0;
#X obj 562 395 bng 15 250 50 0 empty empty <<\\\ Start\\\ Point 17
7 0 10 #fcfcfc #000000 #000000;
#X floatatom 216 561 5 0 0 1 X - - 0;
#X floatatom 417 586 5 0 0 1 Y - - 0;
#X msg 688 455 seed \$1;
#X floatatom 802 355 5 0 100 1 <<\ siez\ of\ Window - - 0;
#X obj 811 643 s \$0-window;
#X obj 571 731 line;
#X obj 364 430 expr i = i + 1 \;;
#X obj 364 449 %;
#X obj 784 444 random 128;
#X obj 566 428 random 128;
#X obj 1 0 cnv 40 312 312 \$0-window \$0-window ⬜ 54 256 0 15 #404040
#d8fcd8 0;
#X obj 1056 572 t b f;
#X floatatom 1056 547 4 18 100 2 V - - 0;
#X floatatom 1014 547 4 18 100 2 H - - 0;
#X msg 1011 628 vis_size \$1 \$2;
#X obj 786 419 s \$0-H-size;
#X obj 941 410 s \$0-V-size;
#X obj 593 482 r \$0-H-size;
#X obj 861 472 r \$0-V-size;
#X floatatom 280 465 5 0 0 0 - - - 0;
#X obj 215 385 loadbang;
#X obj 226 448 expr i = i + 1 \;;
#X obj 226 467 %;
#X obj 293 408 v i;
#X msg 293 389 0;
#X obj 226 486 s \$0-H-pulse;
#X obj 364 468 s \$0-V-pulse;
#X obj 374 488 r \$0-H-pulse;
#X obj 684 489 r \$0-V-pulse;
#X obj 246 360 r \$0-H-size;
#X obj 519 345 r \$0-V-size;
#X obj 1083 507 r \$0-V-size;
#X obj 1014 506 r \$0-H-size;
#X obj 229 610 r \$0-H-size;
#X obj 523 602 r \$0-V-size;
#X obj 286 734 bng 15 250 50 0 empty empty empty 17 7 0 10 #fcfcfc
#000000 #000000;
#X obj 93 739 bng 15 250 50 0 empty empty empty 17 7 0 10 #fcfcfc #000000
#000000;
#X obj 349 742 bng 15 250 50 0 empty empty empty 17 7 0 10 #fcfcfc
#000000 #000000;
#X obj 156 740 bng 15 250 50 0 empty empty empty 17 7 0 10 #fcfcfc
#000000 #000000;
#X floatatom 201 634 5 0 0 0 - - - 0;
#X obj 455 639 change;
#X obj 152 661 change;
#X obj 1014 600 pack f f;
#X floatatom 700 762 4 -100 250 0 - - - 0;
#X obj 742 789 t b f;
#X floatatom 742 762 5 -150 150 0 - - - 0;
#X msg 700 859 label_pos \$1 \$2;
#X obj 700 817 pack 17 20, f 11;
#X obj 493 801 pack f f f;
#X msg 493 822 color \$1 \$2 \$3;
#X obj 524 776 t b f;
#X obj 524 752 + 4;
#X obj 91 645 change;
#X obj 359 659 change;
#X msg 492 702 0 \, 2 50;
#X obj 631 258 + 1;
#X obj -28 50 vradio 15 1 1 8 empty empty empty 0 -8 0 10 #fcfcfc #000000
#000000 7;
#X obj 672 179 + 1;
#X obj 698 267 t b f;
#X obj 613 286 t b f;
#X floatatom -32 17 3 1 19 2 size - - 0;
#X obj -28 259 tgl 15 0 empty empty I/O -2 -7 0 10 #fcfcfc #000000
#000000 0 1;
#X obj -29 196 bng 15 250 50 0 empty empty random -10 -7 0 10 #fcfcfc
#000000 #000000;
#X obj 792 384 *;
#X obj 867 384 *;
#X obj 56 852 outlet;
#X obj 142 620 >=;
#X obj 511 635 - 5;
#X obj 201 610 - 5;
#X obj 802 104 loadbang;
#X obj 455 615 >=;
#X obj 660 122 t b f;
#X obj 725 95 * 3000;
#X floatatom -32 293 3 60 300 2 bpm - - 0;
#X msg 846 186 19;
#X obj 414 48 inlet;
#X obj 1020 231 / 2;
#X floatatom 886 409 5 0 0 0 - - - 0;
#X obj 783 211 i;
#X obj 792 251 expr ($i1*2+1);
#X obj 465 47 inlet;
#X msg 813 473 0;
#X msg 745 148 60;
#X obj 238 519 expr abs(((int($i1+$i2)%$i3)-$i3/2)*2)%$i3;
#X obj 631 525 expr abs(((int($i1+$i2)%$i3)-$i3/2)*2)%$i3;
#X obj 406 626 < 2;
#X obj 93 621 < 3;
#X obj -28 227 bng 15 250 50 0 empty empty reset -6 -6 0 10 #fcfcfc
#000000 #000000;
#X msg 391 253 0;
#X obj 80 -20 hradio 15 1 1 8 empty empty empty 0 -8 0 10 #fcfcfc #000000
#000000 7;
#X obj 157 846 outlet;
#X obj 369 843 outlet;
#X obj 211 842 outlet;
#X obj 285 842 outlet;
#X obj 486 879 outlet;
#X obj 578 879 outlet;
#X obj 224 410 metro;
#X obj 658 66 expr 312/($f1/60*16);
#X connect 0 0 28 0;
#X connect 1 0 10 0;
#X connect 1 0 11 0;
#X connect 2 0 45 0;
#X connect 2 0 68 0;
#X connect 2 0 88 0;
#X connect 3 0 47 0;
#X connect 3 0 72 0;
#X connect 3 0 87 0;
#X connect 4 0 11 0;
#X connect 5 0 65 0;
#X connect 5 0 66 0;
#X connect 7 0 50 0;
#X connect 7 0 53 0;
#X connect 8 0 9 0;
#X connect 9 0 0 0;
#X connect 10 0 4 0;
#X connect 10 0 86 1;
#X connect 11 0 85 1;
#X connect 13 0 44 0;
#X connect 13 1 44 1;
#X connect 14 0 13 0;
#X connect 15 0 44 0;
#X connect 16 0 6 0;
#X connect 19 0 85 2;
#X connect 20 0 86 2;
#X connect 21 0 27 0;
#X connect 22 0 26 0;
#X connect 22 0 98 0;
#X connect 23 0 24 0;
#X connect 24 0 21 0;
#X connect 26 0 25 0;
#X connect 29 0 85 0;
#X connect 30 0 86 0;
#X connect 31 0 24 1;
#X connect 32 0 9 1;
#X connect 33 0 14 0;
#X connect 34 0 15 0;
#X connect 35 0 70 0;
#X connect 36 0 69 0;
#X connect 37 0 95 0;
#X connect 37 0 67 0;
#X connect 38 0 92 0;
#X connect 38 0 67 0;
#X connect 39 0 93 0;
#X connect 39 0 67 0;
#X connect 40 0 94 0;
#X connect 40 0 67 0;
#X connect 42 0 39 0;
#X connect 42 0 56 0;
#X connect 43 0 40 0;
#X connect 43 0 56 0;
#X connect 44 0 16 0;
#X connect 45 0 49 0;
#X connect 45 0 96 0;
#X connect 46 0 49 0;
#X connect 46 1 49 1;
#X connect 47 0 46 0;
#X connect 47 0 97 0;
#X connect 48 0 6 0;
#X connect 49 0 48 0;
#X connect 50 0 51 0;
#X connect 51 0 6 0;
#X connect 52 0 50 0;
#X connect 52 1 50 2;
#X connect 53 0 52 0;
#X connect 54 0 38 0;
#X connect 54 0 56 0;
#X connect 55 0 37 0;
#X connect 55 0 56 0;
#X connect 56 0 7 0;
#X connect 57 0 61 0;
#X connect 58 0 59 0;
#X connect 59 0 60 0;
#X connect 60 0 5 0;
#X connect 60 1 66 1;
#X connect 61 0 5 0;
#X connect 61 1 65 1;
#X connect 62 0 80 0;
#X connect 63 0 98 0;
#X connect 64 0 1 0;
#X connect 65 0 17 0;
#X connect 65 0 78 0;
#X connect 66 0 18 0;
#X connect 66 0 79 0;
#X connect 68 0 43 0;
#X connect 69 0 72 1;
#X connect 70 0 41 0;
#X connect 70 0 68 1;
#X connect 71 0 76 0;
#X connect 71 0 84 0;
#X connect 72 0 42 0;
#X connect 73 0 98 0;
#X connect 73 1 98 1;
#X connect 75 0 99 0;
#X connect 76 0 62 0;
#X connect 77 0 75 0;
#X connect 78 0 25 0;
#X connect 78 0 85 1;
#X connect 80 0 81 0;
#X connect 81 0 5 0;
#X connect 82 0 64 0;
#X connect 83 0 85 1;
#X connect 83 0 86 1;
#X connect 84 0 75 0;
#X connect 85 0 2 0;
#X connect 86 0 3 0;
#X connect 87 0 55 0;
#X connect 88 0 54 0;
#X connect 89 0 90 0;
#X connect 90 0 85 1;
#X connect 90 0 86 1;
#X connect 91 0 57 0;
#X connect 98 0 23 0;
#X connect 98 0 8 0;
#X connect 99 0 74 0;
#X connect 99 0 73 0;
#X coords 0 -1 1 1 365 343 1 -44 -25;
