#N canvas 484 245 862 568 12;
#X obj 129 260 dac~;
#X obj 120 196 *~ 0;
#X obj 156 197 *~ 0;
#X obj 249 209 * 0.01;
#X obj 210 95 inlet~;
#X obj 278 96 inlet~;
#X obj 82 100 inlet~;
#X obj 83 143 expr~ if($v3==1 \, $v2 \, $v1);
#X obj 281 143 expr~ if($v3==1 \, $v2 \, $v1);
#X obj 365 89 sig~;
#X obj 33 23 tgl 15 0 \$0-sm-s empty empty 17 7 0 10 #fcfcfc #000000
#000000 0 1;
#X symbolatom 60 22 10 0 0 0 - \$0-mono - 0;
#X obj 492 122 s \$0-mono;
#X msg 448 90 set mono;
#X msg 515 88 set stereo;
#X obj 457 47 route 1;
#X obj 256 242 * 1;
#X obj 385 260 line;
#X obj 384 211 tgl 15 0 empty empty empty 17 7 0 10 #fcfcfc #000000
#000000 0 1;
#X obj 33 55 bng 15 250 50 0 \$0-mute-s empty mute 17 7 0 10 #fcfcfc
#000000 #000000;
#X obj 453 166 loadbang;
#X obj 9 22 vsl 15 50 0 99 0 0 \$0-volume-s \$0-volume volume 0 60
0 10 #fcfcfc #000000 #000000 0 1;
#X obj 96 55 tgl 15 0 \$0-dsp-s empty DSP 17 7 0 10 #fcfcfc #000000
#000000 0 1;
#X msg 499 227 \; pd dsp \$1;
#X msg 385 236 \$1 30;
#X obj 199 249 line;
#X msg 199 225 \$1 30;
#X floatatom 200 279 5 0 0 0 - - - 0;
#X obj 385 301 t b f;
#X msg 252 326 set \$1;
#X obj 252 350 s \$0-volume;
#X obj 252 297 *;
#X obj 550 36 loadbang;
#X obj 254 185 r \$0-volume-s;
#X obj 539 306 r \$0-mute-s;
#X obj 329 10 r \$0-sm-s;
#X obj 235 35 r \$0-dsp-s;
#X connect 1 0 0 0;
#X connect 2 0 0 1;
#X connect 3 0 16 0;
#X connect 4 0 7 1;
#X connect 5 0 8 1;
#X connect 6 0 7 0;
#X connect 6 0 8 0;
#X connect 7 0 1 0;
#X connect 8 0 2 0;
#X connect 9 0 8 2;
#X connect 9 0 7 2;
#X connect 13 0 12 0;
#X connect 14 0 12 0;
#X connect 15 0 14 0;
#X connect 15 1 13 0;
#X connect 16 0 26 0;
#X connect 17 0 28 0;
#X connect 18 0 24 0;
#X connect 18 0 31 0;
#X connect 20 0 18 0;
#X connect 24 0 17 0;
#X connect 25 0 2 1;
#X connect 25 0 1 1;
#X connect 25 0 27 0;
#X connect 26 0 25 0;
#X connect 28 0 16 0;
#X connect 28 1 16 1;
#X connect 29 0 30 0;
#X connect 31 0 29 0;
#X connect 32 0 13 0;
#X connect 33 0 3 0;
#X connect 33 0 31 1;
#X connect 34 0 18 0;
#X connect 35 0 15 0;
#X connect 35 0 9 0;
#X connect 36 0 23 0;
#X coords 0 -1 1 1 140 95 1 0 0;
