#N canvas 68 97 450 300 12;
#X obj 71 173 snapshot~;
#X obj 71 197 outlet;
#X obj 69 107 inlet~;
#X obj 77 127 loadbang;
#X obj 77 151 metro 10;
#X floatatom 2 18 11 0 0 0 - \$0-snap-r - 0;
#X obj 151 177 s \$0-snap-r;
#X connect 0 0 1 0;
#X connect 0 0 6 0;
#X connect 2 0 0 0;
#X connect 3 0 4 0;
#X connect 4 0 0 0;
#X coords 0 -1 1 1 90 40 1 0 0;
