#N canvas 774 77 1068 1037 12;
#N canvas 47 74 450 278 (subpatch) 0;
#X array \$0-d 200 float 3;
#A 0 0 1 -2 1 0 1 0 -1 3 0 3 0 5 0 0 0 0 1 0 1 0 -5 2 -1 0 3 0 -4 -10
0 0 0 0 0 9 1 0 -2 0 2 -2 0 0 -5 0 -1 0 0 0 0 0 -3 0 9 0 1 0 2 0 -1
0 -9 0 3 -1 0 0 0 0 0 0 -3 0 0 1 0 5 -2 0 2 0 -1 0 0 0 0 4 -8 0 -3
0 -7 -2 0 0 -1 0 -1 2 0 0 0 0 0 4 0 -1 0 -3 1 0 -2 0 -1 2 0 0 0 0 0
0 0 1 -4 0 -1 0 0 0 1 0 0 0 0 0 0 0 0 0 0 0 0 0 0 0 0 0 0 0 0 0 0 0
-1 0 0 0 0 0 0 0 0 1 0 0 0 0 0 0 0 0 0 0 0 0 0 0 0 0 0 -3 0 0 0 0 0
1 3 0 0 0 0 -1 0 0 0 0 0 0 0;
#X coords 0 50 200 -50 200 200 2 0 0;
#X restore 3 33 graph;
#X obj 421 906 tabwrite \$0-c;
#X obj 377 410 tgl 15 0 empty empty <<\\\ Start\\\ Signal 17 7 0 10
#fcfcfc #000000 #000000 0 1;
#X obj 379 561 f;
#X obj 411 561 + 1;
#X obj 483 676 * 50;
#X obj 340 641 f 1;
#X obj 341 712 spigot;
#X obj 212 216 tgl 15 0 empty empty <<\\\ WARP!!!! 17 7 0 10 #fcfcfc
#000000 #000000 0 1;
#X floatatom 557 565 5 10 100 0 W - - 0;
#X floatatom 498 563 5 0 50 0 H - - 0;
#X obj 432 769 * 1;
#X floatatom 213 192 5 -200 200 2 Velocity - - 0;
#X msg 592 789 50;
#X obj 636 544 tgl 15 0 empty empty empty 17 7 0 10 #fcfcfc #000000
#000000 0 1;
#X obj 633 599 f 1;
#X obj 633 620 + 1;
#X floatatom 580 601 5 0 0 0 - - - 0;
#X obj 602 423 tgl 15 0 empty empty empty 17 7 0 10 #fcfcfc #000000
#000000 0 1;
#X obj 583 483 f 0;
#X obj 532 614 +;
#X obj 533 677 * 100;
#X obj 520 772 + 100;
#X obj 583 504 + 0.005;
#X obj 494 615 +;
#X obj 622 693 abs;
#X obj 648 647 % 80;
#X obj 648 671 - 39;
#X obj 467 786 * 0.02;
#N canvas 0 22 450 278 (subpatch) 0;
#X array \$0-c 200 float 3;
#A 0 0 1 -2 1 0 1 0 -1 3 0 3 0 5 0 0 0 0 1 0 1 0 -5 2 -1 0 3 0 -4 -10
0 0 0 0 0 9 1 0 -2 0 2 -2 0 0 -5 0 -1 0 0 0 0 0 -3 0 9 0 1 0 2 0 -1
0 -9 0 3 -1 0 0 0 0 0 0 -3 0 0 1 0 5 -2 0 2 0 -1 0 0 0 0 4 -8 0 -3
0 -7 -2 0 0 -1 0 -1 2 0 0 0 0 0 4 0 -1 0 -3 1 0 -2 0 -1 2 0 0 0 0 0
0 0 1 -4 0 -1 0 0 0 1 0 0 0 0 0 0 0 0 0 0 0 0 0 0 0 0 0 0 0 0 0 0 0
-1 0 0 0 0 0 0 0 0 1 0 0 0 0 0 0 0 0 0 0 0 0 0 0 0 0 0 -3 0 0 0 0 0
1 3 0 0 0 0 -1 0 0 0 0 0 0 0;
#X coords 0 50 200 -50 200 200 2 0 0;
#X restore 3 33 graph;
#X obj 566 904 tabwrite \$0-d;
#X obj 698 773 * 1;
#X obj 582 643 % 100;
#X obj 582 667 - 49;
#X obj 579 712 abs;
#X obj 581 687 * 2;
#X obj 889 603 sig~;
#X obj 808 830 tabread \$0-c;
#X obj 894 536 abs;
#X obj 1077 602 sig~;
#X obj 1082 452 abs;
#X obj 922 838 tabread \$0-d;
#X obj 581 453 metro 10;
#X obj 631 569 metro 10;
#X floatatom 213 115 5 1 100 1 FM - - 0;
#X floatatom 213 97 5 1 100 1 FM - - 0;
#X floatatom 648 719 5 0 0 0 - - - 0;
#X obj 528 869 % 200;
#X obj 818 574 abs;
#X obj 818 599 + 50;
#X obj 533 642 cos;
#X obj 494 643 sin;
#X obj 213 33 tgl 15 0 empty empty <<\\\ START 17 7 0 10 #fcfcfc #000000
#000000 0 1;
#X obj 579 736 *;
#X obj 579 760 i;
#X obj 687 138 loadbang;
#X msg 692 520 50;
#X msg 737 521 100;
#X floatatom 213 133 5 -10 10 1 tone - - 0;
#X obj 740 700 +;
#X obj 478 737 +;
#X obj 743 757 * 0.02;
#X floatatom 213 79 5 -10 10 1 tone - - 0;
#X floatatom 341 736 5 0 0 0 - - - 0;
#X obj 340 662 + 1;
#X obj 342 770 +;
#X obj 665 821 + 0;
#X floatatom 213 61 5 -100 100 1 tone - - 0;
#X obj 644 859 % 200;
#X obj 547 817 + 0;
#X floatatom 213 151 5 -100 100 1 tone - - 0;
#X obj 555 842 +;
#X obj 711 867 +;
#X obj 435 865 i;
#X obj 599 873 i;
#X obj 340 683 % 200;
#X obj 893 579 * 108;
#X obj 889 625 osc~;
#X obj 1078 627 osc~;
#X obj 1077 564 * 108;
#X obj 894 560 * 1;
#X obj 1075 526 * 1;
#X obj 959 624 vcf~ 1 0.3;
#X obj 954 668 vcf~ 1 0.3;
#X obj 819 660 expr abs($f1)*2;
#X obj 1098 658 vcf~ 1 0.3;
#X obj 1091 695 vcf~ 1 0.3;
#X obj 939 695 expr~ ($v1+$v2);
#X obj 627 765 * 0.02;
#X obj 321 1004 outlet;
#X obj 394 1008 outlet;
#X obj 484 1011 outlet;
#X obj 558 1014 outlet;
#X obj 390 527 metro 1;
#X connect 2 0 93 0;
#X connect 3 0 4 0;
#X connect 3 0 6 0;
#X connect 4 0 3 1;
#X connect 4 0 20 0;
#X connect 4 0 24 0;
#X connect 5 0 11 0;
#X connect 5 0 31 0;
#X connect 5 0 48 0;
#X connect 6 0 64 0;
#X connect 7 0 63 0;
#X connect 8 0 7 1;
#X connect 9 0 88 0;
#X connect 10 0 5 1;
#X connect 11 0 73 0;
#X connect 12 0 65 1;
#X connect 13 0 22 1;
#X connect 14 0 43 0;
#X connect 15 0 16 0;
#X connect 16 0 15 1;
#X connect 16 0 26 0;
#X connect 16 0 32 0;
#X connect 17 0 20 1;
#X connect 18 0 42 0;
#X connect 19 0 23 0;
#X connect 20 0 50 0;
#X connect 21 0 22 0;
#X connect 22 0 66 0;
#X connect 22 0 69 0;
#X connect 23 0 19 1;
#X connect 23 0 17 0;
#X connect 24 0 51 0;
#X connect 25 0 46 0;
#X connect 25 0 59 0;
#X connect 25 0 60 0;
#X connect 26 0 27 0;
#X connect 27 0 25 0;
#X connect 28 0 11 1;
#X connect 28 0 83 2;
#X connect 28 0 84 0;
#X connect 28 0 91 0;
#X connect 31 0 74 0;
#X connect 32 0 33 0;
#X connect 33 0 35 0;
#X connect 34 0 53 0;
#X connect 35 0 34 0;
#X connect 36 0 77 0;
#X connect 37 0 38 0;
#X connect 37 0 89 0;
#X connect 38 0 80 0;
#X connect 39 0 78 0;
#X connect 40 0 81 0;
#X connect 41 0 40 0;
#X connect 41 0 90 0;
#X connect 42 0 19 0;
#X connect 43 0 15 0;
#X connect 44 0 43 1;
#X connect 45 0 42 1;
#X connect 47 0 1 1;
#X connect 47 0 37 0;
#X connect 48 0 49 0;
#X connect 50 0 21 0;
#X connect 51 0 5 0;
#X connect 52 0 18 0;
#X connect 52 0 2 0;
#X connect 52 0 14 0;
#X connect 53 0 54 0;
#X connect 54 0 21 1;
#X connect 55 0 56 0;
#X connect 55 0 57 0;
#X connect 56 0 10 0;
#X connect 57 0 9 0;
#X connect 58 0 60 1;
#X connect 59 0 61 0;
#X connect 60 0 28 0;
#X connect 61 0 31 1;
#X connect 61 0 92 0;
#X connect 62 0 59 1;
#X connect 63 0 65 0;
#X connect 64 0 6 1;
#X connect 64 0 75 0;
#X connect 65 0 71 1;
#X connect 65 0 72 1;
#X connect 66 0 72 0;
#X connect 67 0 66 1;
#X connect 68 0 30 1;
#X connect 68 0 41 0;
#X connect 69 0 71 0;
#X connect 70 0 69 1;
#X connect 71 0 47 0;
#X connect 72 0 68 0;
#X connect 73 0 1 0;
#X connect 74 0 30 0;
#X connect 75 0 7 0;
#X connect 76 0 36 0;
#X connect 76 0 82 1;
#X connect 76 0 83 1;
#X connect 77 0 82 0;
#X connect 78 0 85 0;
#X connect 79 0 39 0;
#X connect 79 0 85 1;
#X connect 79 0 86 1;
#X connect 80 0 76 0;
#X connect 81 0 79 0;
#X connect 82 1 83 0;
#X connect 83 0 87 0;
#X connect 84 0 82 2;
#X connect 84 0 85 2;
#X connect 85 1 86 0;
#X connect 86 0 87 1;
#X connect 88 0 53 1;
#X connect 88 0 86 2;
#X connect 93 0 3 0;
#X coords 0 -1 1 1 300 240 1 0 0;
