#N canvas 394 169 823 876 12;
#N canvas 0 22 450 278 (subpatch) 0;
#X array chord 8 float 3;
#A 0 0 4 8 9 7 8 10 12;
#X coords 0 11 8 0 200 140 1 0 0;
#X restore 484 194 graph;
#X msg 356 397 \; chord 0 0 4 7 \;;
#X msg 355 446 \; chord 0 0 3 7 \;;
#X msg 355 493 \; chord 0 0 3 6 9 \;;
#X msg 357 535 \; chord 0 0 4 8 \;;
#X msg 353 577 \; chord 0 2 4 6 10 12 \;;
#X msg 356 623 \; chord 0 0 2 4 5 7 9 11 12 \;;
#X msg 357 666 \; chord 0 0 2 3 5 7 8 10 12 \;;
#X msg 359 716 \; chord 0 0 3 4 7 11 \;;
#X msg 362 770 \; chord 0 0 3 7 11 \;;
#X obj 137 529 outlet;
#X floatatom 132 21 5 0 0 2 step - - 0;
#X obj 258 6 inlet;
#X obj 49 245 tabread chord;
#X obj 60 130 f 0;
#X obj 60 154 + 1;
#X obj 59 208 %;
#X obj 33 43 hradio 15 1 0 9 empty empty chord-type 0 -8 0 10 #fcfcfc
#000000 #000000 0;
#X msg 177 151 3;
#X msg 229 154 4;
#X msg 279 153 5;
#X msg 330 155 8;
#X obj 187 86 sel 0 1 2 3 4 5 6 7 8;
#X obj 10 43 bng 15 250 50 0 empty empty empty 17 7 0 10 #fcfcfc #000000
#000000;
#X obj 361 34 loadbang;
#X obj 524 8 inlet;
#X obj 60 178 - 0;
#X obj 524 32 bang;
#X obj 524 56 f 0;
#X obj 525 85 - 1;
#X connect 12 0 23 0;
#X connect 13 0 11 0;
#X connect 13 0 10 0;
#X connect 14 0 15 0;
#X connect 15 0 16 0;
#X connect 15 0 14 1;
#X connect 15 0 26 0;
#X connect 16 0 13 0;
#X connect 17 0 22 0;
#X connect 18 0 16 1;
#X connect 19 0 16 1;
#X connect 20 0 16 1;
#X connect 21 0 16 1;
#X connect 22 0 18 0;
#X connect 22 0 1 0;
#X connect 22 1 18 0;
#X connect 22 1 2 0;
#X connect 22 2 19 0;
#X connect 22 2 3 0;
#X connect 22 3 18 0;
#X connect 22 3 4 0;
#X connect 22 4 20 0;
#X connect 22 4 5 0;
#X connect 22 5 21 0;
#X connect 22 5 6 0;
#X connect 22 6 21 0;
#X connect 22 6 7 0;
#X connect 22 7 8 0;
#X connect 22 8 20 0;
#X connect 22 9 19 0;
#X connect 22 9 9 0;
#X connect 23 0 14 0;
#X connect 24 0 17 0;
#X connect 24 0 18 0;
#X connect 25 0 27 0;
#X connect 26 0 16 0;
#X connect 27 0 28 0;
#X connect 28 0 29 0;
#X connect 29 0 28 1;
#X connect 29 0 26 1;
#X coords 0 -1 1 1 180 70 1 0 0;
